<mxfile host="app.diagrams.net" modified="2023-04-13T12:44:06.654Z" agent="Mozilla/5.0 (Windows NT 10.0; Win64; x64) AppleWebKit/537.36 (KHTML, like Gecko) Chrome/112.0.0.0 Safari/537.36" version="21.1.7" etag="JOqHhyiBe8ymjRYlNORq" type="github">
  <diagram name="Page-1" id="w_ny85UPIUxhpSExAoRE">
    <mxGraphModel>
      <root>
        <mxCell id="0" />
        <mxCell id="1" parent="0" />
      </root>
    </mxGraphModel>
  </diagram>
</mxfile>
